<svg width="72" height="48" viewBox="0 0 72 48" fill="none" xmlns="http://www.w3.org/2000/svg">
<path d="M9.7508 0C14.0271 0.177181 19.694 0.0268692 24.0254 0.0242653L24.033 14.4143L19.262 14.4196L19.2637 19.2073C20.7724 19.1626 22.4993 19.2054 24.0252 19.2073L24.0225 20.994L28.844 21.0048C28.8259 21.7851 28.8387 22.5975 28.8411 23.3809C30.4201 23.4013 32.0183 23.3908 33.5992 23.3918L33.6 28.2115C32.0146 28.1931 30.4289 28.1958 28.8434 28.2194L28.8357 25.8518C27.4204 25.8135 25.4018 25.7566 24.0247 25.8481L24.0193 23.9746C23.2203 24.0069 22.4419 23.9899 21.6431 23.9779L21.6399 28.8103L24.013 28.8088C24.0475 30.3599 24.0209 32.0071 24.0218 33.5656L26.408 33.5597C26.4379 35.1625 26.4291 36.7999 26.4327 38.4048L28.834 38.3871L28.85 43.1681C29.7107 43.2118 30.3507 43.2032 31.2136 43.171C31.2224 44.7806 31.2209 46.39 31.2093 47.9995L23.237 48L2.44862 47.991L2.45939 43.1827C3.1159 43.2253 4.15411 43.1917 4.83915 43.1904L4.84933 38.4026C5.65194 38.3837 6.45478 38.3745 7.2575 38.3749L7.29811 33.5567L9.66816 33.5571L9.68166 28.7863L12.0364 28.814L12.044 24.0117L9.68947 23.9902L9.67953 26.3934C8.06934 26.3904 6.45928 26.4031 4.84933 26.4315C4.84519 27.2258 4.87526 28.0055 4.90261 28.7989L0.0186613 28.8075C0.00492736 27.2055 -0.0343798 25.5819 0.0707558 23.9846L4.83844 23.9759L4.84649 21.609L9.66769 21.5985L9.67988 19.2152C11.2501 19.1932 12.8457 19.2072 14.4182 19.2078C14.4466 17.6289 14.4267 15.998 14.4264 14.4148C12.8943 14.4519 11.2329 14.4168 9.67562 14.4365L9.66035 4.83917C9.65916 3.80827 9.59867 0.86543 9.7508 0Z" fill="#EADED7"/>
<path d="M48.0007 0C49.6735 0.0912987 51.7259 0.0417482 53.4261 0.0415117C56.3913 0.0506179 59.3565 0.0393809 62.3216 0.00756825L62.3213 14.4291L57.5695 14.4398C57.5613 16.0281 57.5641 17.6164 57.578 19.2047L62.3305 19.2308L62.327 20.9963L67.1667 21.0221L67.1647 23.3849L71.9907 23.414L72.0004 28.2047C70.4001 28.2242 68.7701 28.2049 67.1672 28.2005C67.1522 27.4248 67.1586 26.6276 67.1557 25.8498C65.6706 25.8151 63.7947 25.7599 62.3347 25.8302L62.3258 23.9978L59.9552 24.0043L59.9588 28.7982L62.3215 28.797L62.3385 43.171C63.8694 43.2331 65.6153 43.205 67.1626 43.2142L67.157 47.98C63.9924 48.0223 60.7405 47.9843 57.5689 47.9848L57.5608 37.0738L57.563 33.5783L52.7744 33.5752C52.6149 38.1016 52.7501 43.3997 52.7514 47.9856L43.1838 47.9888C43.1434 46.4497 43.1383 44.6696 43.2305 43.1459C44.5718 43.2396 46.6012 43.193 47.9829 43.1989L47.9989 28.75C48.5883 28.8194 49.7331 28.8087 50.3653 28.8199L50.37 23.995C49.6243 24.0214 48.7494 23.9962 47.9932 23.9925L47.9868 26.4346C46.3826 26.3856 44.8261 26.4077 43.2216 26.4265C43.1849 27.2027 43.2022 28.0378 43.2048 28.8201C41.6927 28.7695 39.931 28.8169 38.4004 28.822L38.4107 23.9951L43.1609 23.9854L43.1779 21.6109L47.9816 21.6165L48.0004 19.1738C49.039 19.2858 51.5914 19.2244 52.7414 19.2262L52.7509 14.413C51.2037 14.4812 49.5888 14.3916 47.9852 14.4684L48.0007 0Z" fill="#EADED7"/>
</svg>
