<svg width="114" height="58" viewBox="0 0 114 58" fill="none" xmlns="http://www.w3.org/2000/svg">
<path d="M60.3817 0.799662C62.3101 0.611284 64.252 1.11415 64.0106 3.46275C63.8666 4.86582 63.1357 5.76838 62.7069 7.06236C64.8454 6.68777 69.3813 4.43958 70.2508 8.14244C70.4025 8.78914 70.2697 9.93655 69.8377 10.4813C68.9829 11.5583 68.1438 12.0476 66.8143 12.2655C65.6885 13.1374 65.6146 14.7398 67.5291 14.3104C69.0797 13.9625 68.8568 12.3827 69.9959 11.8631C73.4597 10.2839 78.3777 16.0614 75.4784 19.0907C75.1047 19.4815 74.2519 20.1651 74.1483 20.6678C73.8963 21.9017 76.0707 22.2496 76.4237 23.3817C76.7281 23.893 76.829 25.1708 76.4178 25.6903C74.8449 27.6767 70.8019 27.1166 68.6141 27.2577C66.3752 27.402 64.7752 26.9656 62.9012 25.8573C62.5205 25.6319 61.9686 25.443 61.5633 25.3036C61.4411 25.6595 60.1923 28.5608 60.4803 28.7752C60.9631 29.1303 62.3263 28.1612 62.8758 28.6141C63.1925 28.7867 63.2241 29.2127 62.9022 29.4442C61.702 30.3057 60.8157 30.7067 59.909 31.9432C59.7814 32.1184 59.6414 32.3624 59.5252 32.5526C59.6474 33.4211 60.0357 35.7453 59.5877 36.6122C59.5103 36.7618 59.0816 36.867 58.8758 36.8905C57.465 37.0509 54.3111 37.3343 53.1122 36.5565C52.3484 36.0597 54.1883 31.892 54.1092 31.0292C54.0807 30.3616 53.5429 27.9723 53.0506 27.62C50.931 26.1067 47.9084 27.8117 45.5916 27.7694C43.2853 27.7234 38.7237 28.4342 38.0194 25.4168C37.5246 23.2951 40.1645 22.2861 40.2723 20.5321C40.3247 19.6686 38.7141 18.9152 38.1385 18.3846C37.5399 17.8328 36.9395 17.2161 36.8973 16.3075C36.8089 14.2508 38.3029 14.0639 39.2166 12.7674C39.6364 11.9654 39.4975 11.1093 40.1903 10.411C41.0065 9.61608 42.4662 8.5833 43.5184 8.16294C44.3966 7.81215 46.5649 8.17199 47.5711 8.0604C49.071 7.89391 48.521 6.22156 48.8172 5.16685C49.0658 4.28276 49.322 3.67382 49.9256 2.98228C51.531 1.1387 54.1528 1.71378 56.2489 1.42466C57.7027 1.2241 58.8694 0.907725 60.3817 0.799662ZM57.0389 27.7342C56.8093 27.938 56.5063 28.1431 56.4305 28.4227C56.4878 28.5659 56.5122 28.5762 56.6288 28.6844L56.7235 28.7381C56.8549 28.5922 57.0958 27.8984 57.0389 27.7342ZM56.3954 23.2147C55.451 23.4507 54.9031 23.6758 53.9872 24.0458C54.3406 24.8628 54.7305 25.6646 55.1532 26.4481L55.6688 27.3817C56.6145 26.4213 56.6251 25.4162 56.6317 24.1356C56.6328 23.9138 56.6218 23.4278 56.5428 23.243C56.4896 23.2293 56.4459 23.2109 56.3954 23.2147ZM68.6893 22.6112C66.7887 23.2283 66.7188 24.9403 68.7489 25.3348C69.1226 25.3508 69.6763 25.4128 69.9676 25.1444C70.0491 25.0681 70.0931 24.96 70.0877 24.8485C70.0745 24.5227 69.792 24.2757 69.7899 24.2626C69.7828 23.4374 69.8221 22.5409 68.6893 22.6112ZM44.6336 21.8475C43.3902 22.1552 43.0801 23.6473 44.1405 24.4305C44.3443 24.5807 44.7786 24.5152 45.035 24.4881C46.6123 23.6293 46.2297 21.9373 44.6336 21.8475ZM57.8309 21.8788C57.65 21.9271 57.6731 21.8897 57.6024 22.0077C57.6258 22.189 57.6522 22.2374 57.7215 22.41C57.7395 22.6052 57.7412 22.6779 57.8016 22.867L57.8924 22.9393C57.9164 22.8474 57.9361 22.7545 57.953 22.661C58.0081 22.3444 58.0219 22.1534 57.8309 21.8788ZM61.204 18.3534C60.7943 18.4949 60.4982 18.6289 60.286 19.0409C60.1192 19.3691 60.098 19.7526 60.2264 20.0975C60.4119 20.6049 60.9757 21.0608 61.5174 20.8251C61.9073 20.6985 62.4153 20.5724 62.5819 20.1708C62.9782 19.213 62.1199 18.3467 61.204 18.3534ZM47.1268 17.5321C46.2516 17.938 45.6126 18.4104 46.1024 19.4618C46.3233 19.9302 46.723 20.2915 47.2118 20.4627C47.3923 20.5253 47.6337 20.5609 47.8231 20.5448C48.0945 20.4944 48.8505 20.4067 48.9227 20.1756C49.3165 18.9156 48.4755 17.4049 47.1268 17.5321ZM66.3172 16.9354C66.1346 16.991 65.948 17.0475 65.7665 17.1073C64.5204 17.5181 65.4242 18.847 66.4051 18.9247C68.0462 18.4887 67.4722 16.817 66.3172 16.9354ZM56.9051 13.4793C56.8585 13.4715 56.6863 13.4953 56.6307 13.5018C55.6752 14.2368 56.3747 16.4072 57.0702 16.4549C57.3119 16.4725 57.5531 16.4067 57.7528 16.2684C58.8302 15.239 58.4591 13.7437 56.9051 13.4793ZM49.3456 10.703C49.0622 10.8885 49.0049 10.9356 48.7713 11.1805C48.5732 12.0061 48.4196 13.6535 49.7948 13.1883C51.1704 12.3345 50.6902 10.7706 49.3456 10.703ZM57.8319 5.74302C56.5098 6.18105 56.3239 7.93101 57.9022 8.06919C59.348 7.67329 58.9181 5.83858 57.8319 5.74302Z" fill="#819563"/>
<path d="M57.9212 26.9941C57.943 27.2312 57.945 27.3192 58.0183 27.5488L58.1281 27.6365C58.1175 27.9285 58.0078 28.2882 57.9324 28.5791C57.9165 28.0456 57.8934 27.5278 57.9212 26.9941Z" fill="#819563"/>
<path d="M66.3208 45.9605C69.1986 45.4153 71.9712 47.3156 72.5015 50.1968C73.0323 53.078 71.1188 55.8413 68.2358 56.358C65.3739 56.8705 62.634 54.9733 62.1069 52.1128C61.58 49.2519 63.4634 46.5019 66.3208 45.9605ZM70.0727 54.3365C71.67 51.4917 70.4981 46.3451 66.521 46.7632C65.7713 46.8925 64.9303 47.2371 64.5395 47.9214C62.8206 50.9346 64.0964 55.774 68.1333 55.604C68.9226 55.4261 69.6662 55.0605 70.0727 54.3365Z" fill="#819563"/>
<path d="M104.295 46.2782C105.622 46.337 107.98 45.9075 108.947 47.0789C110.328 48.7527 108.998 50.4564 107.824 51.5496C108.852 52.8047 109.861 54.2586 111.079 55.326C111.66 55.8359 112.333 55.7943 112.541 55.9735L112.481 56.0643C112.174 56.1615 111.203 56.1449 110.843 56.1317C109.828 56.094 109.413 55.7872 108.759 55.0809C107.977 54.1233 107.326 53.0943 106.567 52.118L105.204 52.0448C105.16 52.9741 105.172 54.0995 105.243 55.036C105.324 56.1151 106.087 55.631 106.515 55.9461L106.514 56.0623C106.272 56.1959 102.636 56.0941 102.236 56.0174C102.647 55.9037 103.079 55.9211 103.399 55.6434C103.929 54.3769 103.49 48.6402 103.545 47.0614C103.565 46.4554 102.614 46.5945 102.253 46.3114C102.765 46.2089 103.722 46.2621 104.295 46.2782ZM105.686 46.9002C105.451 46.9362 105.355 46.9064 105.217 47.0506C105.146 47.6805 105.094 50.7709 105.314 51.244C105.795 51.5436 106.723 51.4258 107.212 51.1707C108.578 49.7786 108.131 46.9256 105.686 46.9002Z" fill="#819563"/>
<path d="M48.2461 45.8926C48.4178 45.9438 48.4858 45.9902 48.577 46.1534C49.0571 47.0505 49.5046 47.9834 49.9376 48.9058C50.6852 50.4981 51.5043 52.0819 52.2133 53.6899L54.3317 49.232C54.5882 48.682 55.7148 45.9835 56.0751 45.9481C56.5207 46.304 57.2228 54.2719 57.7022 55.3427C57.9117 55.8109 58.8829 55.8876 59.3583 56.043C58.801 56.1191 56.2873 56.1746 55.8272 55.9743C55.9336 55.0206 55.9105 55.1039 55.7789 54.133L55.3915 51.2926C55.3208 50.6459 55.2282 50.0538 55.1244 49.4113C54.8309 50.1816 52.1305 55.9187 51.8311 56.129C51.2521 55.6965 48.9658 50.6116 48.4968 49.5985C48.3559 50.4243 47.7617 54.9002 47.8294 55.5358C48.0078 55.8169 48.8619 55.9114 49.2948 56.0536C48.5732 56.1641 46.1547 56.1475 45.4014 56.0821C45.9207 55.8195 46.5198 55.8876 46.6903 55.2673C46.8655 54.6297 46.939 53.9644 47.036 53.3096L47.706 48.7801C47.8158 48.0424 47.9962 46.5432 48.2461 45.8926Z" fill="#819563"/>
<path d="M77.4499 45.9648L77.5041 45.9791C77.6773 46.0226 77.7817 46.0983 77.9041 46.2251C80.261 48.6725 82.5935 51.1864 84.994 53.5892C84.9577 52.6302 85.0152 47.3301 84.6608 46.8178C84.3818 46.4145 83.847 46.6642 83.5422 46.3328L83.638 46.2678C84.2469 46.2672 86.6449 46.171 86.9814 46.3148L86.9913 46.4222C86.713 46.6431 86.0214 46.4173 85.9738 47.1159C85.9024 48.1643 85.9137 49.224 85.8978 50.2752L85.7689 56.1877C85.7193 56.2472 85.7041 56.2333 85.6095 56.2677C84.9319 56.0706 79.0128 49.7403 78.2353 48.899C78.2769 50.2299 78.3113 51.5609 78.3384 52.8921C78.3563 53.6242 78.3523 54.5098 78.4746 55.23C78.6002 55.9727 79.4233 55.7769 79.7156 55.9674L79.6951 56.0607C79.3433 56.1533 76.3319 56.1844 76.1494 56.0243C76.4125 55.7961 76.7504 55.8781 77.0684 55.6606C77.1643 55.5078 77.237 55.3292 77.2449 55.1473C77.3877 52.1041 77.276 49.0037 77.4499 45.9648Z" fill="#819563"/>
<path d="M94.4756 45.9004C94.9502 46.1014 95.4404 47.6615 95.6367 48.1641L97.3047 52.3779C97.6689 53.2916 98.0394 54.3562 98.5557 55.1875C98.9642 55.8456 99.4883 55.8485 100.211 55.9834C99.5459 56.156 97.1786 56.2183 96.5801 56.0332L96.5488 55.9531L96.7549 55.7461C96.8177 55.4452 95.888 53.1839 95.7207 52.748L94.1846 52.7188L92.6572 52.7549C92.4417 53.4334 91.702 55.0371 91.8076 55.6338C91.9828 55.8367 92.3365 55.8624 92.624 55.9199L92.6406 56.0059C92.2252 56.2101 89.4791 56.1359 88.9219 56.0645C89.3106 55.8713 89.8228 55.8089 90.2764 55.6846C91.2338 54.7513 93.4899 47.5618 94.4756 45.9004ZM94.1875 48.708C93.8008 49.7639 93.3855 50.9994 92.9717 52.0283L94.21 52.0264L95.4775 52.0215C95.2613 51.5087 94.4083 48.9315 94.1875 48.708Z" fill="#819563"/>
<path d="M7.09433 46.1798L7.17823 46.1777C7.35079 46.4647 7.09215 47.9612 7.02789 48.3599C6.76245 47.5019 6.61554 46.9649 5.54141 46.9784C5.03121 46.9849 4.49946 46.9903 3.98795 46.9953C3.97902 48.1643 3.98352 49.3333 4.0015 50.5021C5.10466 50.5226 6.15381 50.6912 7.05585 50.0747C7.00858 50.8463 6.96488 51.8503 6.80621 52.5903C6.60774 51.7684 6.51254 51.1795 5.48607 51.1759C4.9883 51.1742 4.48604 51.1914 3.98867 51.2034C3.98153 52.1836 3.96229 53.1697 3.981 54.1498C4.00315 55.3098 4.40605 55.452 5.48435 55.4077C6.31427 55.374 6.84562 55.5354 7.23905 54.6438C7.29637 54.4249 7.30748 54.3786 7.42106 54.1849L7.50106 54.1782C7.64591 54.5923 7.54641 55.7668 7.25538 56.1147C6.89976 56.2106 1.31335 56.1293 0.830258 56.0162C1.16697 55.9183 2.07199 55.8131 2.12237 55.5969C2.41393 54.3449 2.38471 47.6032 2.19424 46.8576C1.92 46.5216 1.15282 46.4613 0.677734 46.3436C1.35678 46.1663 2.82938 46.2732 3.60244 46.2806C4.84067 46.2925 5.84704 46.3154 7.09433 46.1798Z" fill="#819563"/>
<path d="M11.6201 46.236C12.5741 46.1919 15.3898 46.2086 16.1735 46.3644C15.6622 46.487 14.9324 46.4546 14.6328 46.8124C14.4343 47.6645 14.4151 53.7024 14.6787 54.9609C14.6942 55.0343 14.9956 55.2823 15.1588 55.3009C15.9273 55.3895 17.347 55.6117 17.8823 54.9312C18.1145 54.6362 18.0386 54.2519 18.3556 54.0529C18.4292 54.1838 18.3984 54.6011 18.3977 54.7857C18.3755 55.0912 18.3768 55.4576 18.2778 55.7499C18.2282 55.8961 18.1539 56.0429 18.0011 56.0998C17.7058 56.2102 11.9109 56.1355 11.7662 56.0634L11.739 55.9298C11.9788 55.7466 12.3929 55.9377 12.657 55.611C12.9539 54.5839 12.9253 48.2758 12.7241 46.8625C12.6897 46.6211 11.979 46.5213 11.7051 46.4389L11.6201 46.236Z" fill="#819563"/>
<path d="M28.0332 46.2338C29.0264 46.2141 30.8928 46.2899 31.9662 46.2627C32.0028 46.2942 32.0393 46.3256 32.0759 46.357L32.0132 46.4537C31.7913 46.5034 31.546 46.5191 31.33 46.5785C31.1953 46.6155 31.0958 46.722 31.0365 46.8451C30.7496 47.4409 30.8501 52.986 30.9231 53.9687C30.951 54.3444 31.004 54.7015 31.1329 55.056C31.5487 55.5243 32.4486 55.3206 32.9598 55.3926C34.2668 55.5772 34.241 54.5117 34.7882 54.1063C34.9035 54.2736 34.8561 54.3219 34.8395 54.564C34.7782 55.1605 34.7143 55.55 34.5492 56.1241C32.855 56.3424 30.964 55.9667 29.2456 56.1102C28.9326 56.136 28.4403 56.1783 28.1679 56.0295L28.163 55.9197C28.4587 55.8457 28.7558 55.7769 29.054 55.7134C29.2962 54.7439 29.4158 47.5657 29.1106 46.8773C28.9464 46.507 28.4815 46.6102 28.1748 46.4616C28.0617 46.4068 28.0712 46.3461 28.0332 46.2338Z" fill="#819563"/>
<path d="M38.3184 46.2467C38.7499 46.2066 42.1316 46.2455 42.5237 46.313C42.0877 46.482 41.5075 46.445 41.1999 46.838C40.9789 47.1202 40.9855 54.4764 41.1378 55.3369C41.2499 55.9698 42.0364 55.7053 42.4241 55.95L42.435 56.0624C41.9277 56.1418 38.8849 56.1616 38.3994 56.0677L38.3494 55.981C38.7917 55.6226 39.3338 56.1272 39.3833 54.8845C39.4678 52.7635 39.4053 50.6313 39.4332 48.5088C39.4401 47.9892 39.433 47.483 39.3319 46.9766C39.2336 46.4846 38.6869 46.5953 38.3522 46.3908L38.3184 46.2467Z" fill="#819563"/>
</svg>
