<svg width="84" height="32" viewBox="0 0 84 32" fill="none" xmlns="http://www.w3.org/2000/svg">
<path d="M12.043 0.00585938L12.042 1.72363L13.6943 1.71875L13.6953 5.18457L11.9902 5.17578L11.9951 6.94629L13.6934 6.94043L13.6953 8.70508C13.7716 8.70405 13.8485 8.70254 13.9258 8.70117C14.2989 8.69455 14.6822 8.68866 15.0527 8.71777C14.9789 8.05548 15.0011 6.72339 15.0176 5.77539C15.0216 5.54396 15.0256 5.33536 15.0273 5.16504L16.5967 5.1709L16.6094 3.36914L18.3789 3.37305L18.374 5.1709L20 5.16895C19.9927 6.36459 19.9931 7.56022 20.001 8.75586L18.377 8.75L18.374 10.5469L20.001 10.5459L19.998 14.1299L18.377 14.1211L18.373 15.832L16.5977 15.8311L16.6045 14.1328L15.0205 14.1357C15.0201 13.7641 15.0225 13.3759 15.0254 12.9824C15.0315 12.1582 15.0373 11.3101 15.0137 10.541L16.5947 10.5469L16.6016 8.75879L15.334 8.76758C15.3328 8.90613 15.3316 9.0536 15.3291 9.20508C15.322 9.63571 15.314 10.0991 15.333 10.4824L13.6309 10.4727L13.624 12.2881L11.9883 12.2793L11.9912 13.9941L13.626 13.9932V17.5107L12.0703 17.5068L12.0723 31.9883L10.2988 32C10.2492 27.2241 10.2736 22.2866 10.3057 17.5088L8.57812 17.5117L8.58594 13.9922L10.2344 13.9951L10.2373 12.2871L8.57812 12.2861L8.58301 10.4727C8.49926 10.4736 8.40543 10.4761 8.30566 10.4785C7.83452 10.4898 7.22623 10.504 6.87012 10.4023C6.88253 9.84115 6.89116 9.27995 6.89746 8.71875L5.29688 8.72363L5.29785 10.4893C5.43464 10.4877 5.58232 10.4875 5.73438 10.4873C6.11215 10.4867 6.51706 10.4863 6.84863 10.4648C6.97017 11.0787 6.91977 12.9565 6.89648 13.8154C6.89439 13.8928 6.89213 13.9623 6.89062 14.0215L5.29395 14.0078L5.29688 15.6914L3.58984 15.6875L3.59668 14.0098L2.00098 14.0137L2.00293 10.4854L3.59082 10.4873L3.59473 8.71973L2.00098 8.72656V5.19336L3.5918 5.19629L3.59863 3.42285H5.31738C5.32281 3.86587 5.30967 4.32675 5.29688 4.7793C5.29291 4.91965 5.28852 5.05922 5.28516 5.19727L6.87891 5.19238C6.93196 6.05445 6.92345 7.03515 6.91504 7.95703C6.91271 8.21243 6.9101 8.46345 6.90918 8.70605L8.60938 8.71289C8.60515 8.12127 8.61126 7.52913 8.62891 6.9375L10.2646 6.94434L10.2676 5.17969L8.66309 5.18652L8.66602 1.7207L10.2822 1.72363V0L12.043 0.00585938ZM3.49219 22.3086L6.61426 22.3027L6.61523 24.0781L8.30371 24.082C8.29808 25.3863 8.39486 28.1375 8.26855 29.3047L4.97363 29.3027L4.9834 27.543L3.35449 27.5586L3.3457 24.0596L1.74121 24.0664L1.75 22.3135L0 22.3223L0.00195312 20.5518L3.49512 20.5469L3.49219 22.3086ZM22 20.5518L22.002 22.3164H20.2979L20.3008 24.0557L18.6943 24.0654V27.5518L17.0254 27.542L17.0361 29.2959L13.6738 29.3047L13.668 24.0801L15.3818 24.0859L15.3838 22.3008L18.5586 22.3086L18.5713 20.5469L22 20.5518Z" fill="#D2BFB5"/>
<path fill-rule="evenodd" clip-rule="evenodd" d="M49.4844 6.02344C49.4493 6.02379 49.4141 6.02413 49.3789 6.02448L49.3814 6.02446C49.4157 6.02412 49.4501 6.02378 49.4844 6.02344Z" fill="#D2BFB5"/>
<path d="M83.6309 12.8008H80.7051V14.0098V14.0107V15.0498H83.6309V16.6064H80.7051V16.6055H77.7793V16.6064H80.7051V19.2012H77.7793V20.584H80.3154V21.7939H77.7793V23.6973H81.291V24.9082H77.7793V26.8105H80.1211V28.0215H77.7793V32H74.8535V28.0215H72.5127V26.8105H74.8535V24.9082H71.3418V23.6973H74.8535V21.7939H72.3174V20.584H74.8535V19.2012H71.9277V16.6064H74.8535V16.6055H71.9277V14.0107V14.0098V12.2803H74.8535V13.6641H77.7793V12.2803H80.7051V11.416H83.6309V12.8008ZM74.8535 18.5068H77.7793V17.8164H74.8535V18.5068ZM71.9268 16.6064H69.001V15.0498H71.9268V16.6064ZM74.8535 16.4326H77.7793V15.0479H74.8535V16.4326ZM71.9268 12.8008H69.001V11.416H71.9268V12.8008ZM83.6309 9.68652H80.7051V11.416H77.7793V12.2803H74.8535V11.416H71.9277V9.33984H74.8535V10.7236H77.7793V9.33984H80.7051V8.30273H83.6309V9.68652ZM71.9268 9.68652H69.001V8.30273H71.9268V9.68652ZM77.7793 6.22656H80.7051V8.30273H77.7793V9.33984H74.8535V8.30273H71.9277V6.22656H74.8535V5.36328H77.7793V6.22656ZM71.9268 6.22754H69.001V5.0166H71.9268V6.22754ZM80.7051 5.0166H83.6309V6.22754H80.7051V5.3623H77.7793V3.63281H74.8535V5.3623H71.9277V1.90332H80.7051V5.0166ZM77.7803 1.90234H74.8535V0H77.7803V1.90234Z" fill="#D2BFB5"/>
<path d="M46.4287 32H44.2734V12.918H46.4287V32ZM53.7021 28.7617L52.1562 28.7529L52.1602 30.5303L49.0439 30.5293V28.752L47.5068 28.7627L47.5088 25.2598L49.0449 25.2549L49.0439 23.4854H53.7012L53.7021 28.7617ZM41.6338 23.1943L41.6299 24.9688H43.1943L43.1963 28.4561L41.625 28.4482C41.6165 28.07 41.6196 27.6655 41.623 27.2695C41.6246 27.0928 41.6265 26.9173 41.627 26.7471L40.0693 26.7432C40.0614 26.3523 40.0636 25.9377 40.0654 25.5303C40.0663 25.3373 40.0676 25.1454 40.0674 24.959L38.5244 24.9531L38.5254 26.7441L40.0693 26.7432L40.0723 28.4453L41.625 28.4482L41.6289 30.2324L38.541 30.2373L38.5488 28.4521L37.001 28.457L37.0039 23.1914L41.6338 23.1943ZM50.5938 27.0381C50.0688 27.0493 49.5435 27.0504 49.0186 27.0439L49.0234 28.6611C49.2043 28.7447 49.6939 28.7481 50.1035 28.7432C50.162 28.7425 50.2193 28.742 50.2734 28.7412C50.4012 28.7393 50.5138 28.737 50.5957 28.7383L50.5938 27.0381ZM50.5938 27.0381C50.9459 27.0175 51.3545 27.0224 51.7402 27.0273H51.7422C51.8835 27.0291 52.022 27.0308 52.1533 27.0312L52.1543 25.2451L50.5869 25.2441L50.5938 27.0381ZM40.3125 6.2168H40.3135V3.76172H42.9092V6.21875L42.9102 6.21973L42.9092 7.19531L44.7393 7.19434L44.7412 11.0977L42.999 11.0859V14.0615L39.4658 14.0635L39.4707 12.083L37.7178 12.0918L37.7197 6.54199H37.7168V1.30566H40.3125V6.2168ZM52.9863 6.54199H52.9834L52.9854 12.0918L51.2324 12.083L51.2373 14.0635L47.7041 14.0615V11.0859L45.9619 11.0977L45.9639 7.19434L47.7939 7.19531L47.793 6.21973L47.7939 6.21875V3.76172H50.3896V6.2168H50.3906V1.30566H52.9863V6.54199ZM46.5732 5.23438H44.1299V2.61719H46.5732V5.23438ZM47.7949 2.61621H42.9082V0H47.7949V2.61621Z" fill="#D2BFB5"/>
</svg>
