<svg width="287" height="141" viewBox="0 0 287 141" fill="none" xmlns="http://www.w3.org/2000/svg">
<path d="M106.884 75.9963C110.766 75.9963 114.077 76.5671 116.817 77.7089C119.614 78.8506 121.755 80.5062 123.239 82.6755C124.781 84.8448 125.551 87.4709 125.551 90.5536C125.551 94.093 124.524 97.1472 122.469 99.7161C120.414 102.285 117.759 104.569 114.505 106.567L122.811 114.445C123.782 112.96 124.638 111.305 125.38 109.478C126.179 107.594 126.779 105.625 127.178 103.57H144.133C143.22 107.737 141.85 111.733 140.023 115.558C138.196 119.383 136.227 122.551 134.115 125.063L147.473 137.908H126.322L122.212 133.626C121.07 134.368 119.928 135.053 118.787 135.681C117.702 136.309 116.474 136.852 115.104 137.308C113.734 137.765 112.136 138.107 110.309 138.336C108.539 138.621 106.37 138.764 103.801 138.764C99.0628 138.764 95.0381 137.965 91.727 136.366C88.416 134.768 85.9041 132.627 84.1915 129.944C82.4789 127.204 81.6226 124.207 81.6226 120.953C81.6226 118.498 82.0507 116.243 82.907 114.188C83.8204 112.133 85.1049 110.277 86.7604 108.622C88.4731 106.909 90.5567 105.425 93.0115 104.169C91.8698 102.856 90.8707 101.514 90.0144 100.144C89.2152 98.7171 88.5872 97.2328 88.1305 95.6915C87.7309 94.093 87.5311 92.3804 87.5311 90.5536C87.5311 87.6992 88.2447 85.1874 89.6719 83.018C91.1562 80.8487 93.3255 79.1361 96.1799 77.8802C99.0913 76.6242 102.659 75.9963 106.884 75.9963ZM101.917 113.16C101.118 113.731 100.461 114.388 99.9476 115.13C99.4339 115.815 99.0628 116.557 98.8344 117.356C98.6061 118.098 98.4919 118.898 98.4919 119.754C98.4919 121.524 99.1199 122.979 100.376 124.121C101.632 125.206 103.287 125.748 105.342 125.748C106.941 125.748 108.34 125.548 109.538 125.149C110.737 124.692 111.651 124.207 112.279 123.693L101.917 113.16ZM106.627 86.7002C105.485 86.7002 104.458 87.0427 103.544 87.7278C102.688 88.4128 102.26 89.526 102.26 91.0674C102.26 92.3233 102.631 93.4936 103.373 94.5783C104.115 95.6629 104.971 96.662 105.942 97.5754C107.54 96.662 108.739 95.5773 109.538 94.3214C110.395 93.0654 110.823 91.8095 110.823 90.5536C110.823 89.1835 110.423 88.213 109.624 87.6421C108.825 87.0142 107.826 86.7002 106.627 86.7002Z" fill="#F0DED4"/>
<path d="M150.26 137.455C155.562 104.269 155.562 33.1855 150.26 0H234.5C263.169 0 281.235 12.5673 281.235 32.9891C281.235 53.2146 270.828 63.8182 245.889 66.3709V67.7455C273.577 68.5309 286.733 79.7236 286.733 100.735C286.733 123.316 268.864 137.455 240.391 137.455H150.26ZM201.511 80.7055C201.708 89.5418 201.904 97.9855 202.297 106.036C206.813 106.625 211.919 107.018 217.417 107.018C230.573 107.018 237.642 102.305 237.642 93.4691C237.642 84.4364 230.769 79.92 216.435 79.92C210.348 79.92 205.439 80.1164 201.511 80.7055ZM201.511 55.9636C205.831 56.3564 210.544 56.5527 215.257 56.5527C228.217 56.5527 235.089 52.0364 235.089 43.5927C235.089 34.9527 228.413 30.8291 215.06 30.8291C210.348 30.8291 206.224 31.0255 202.493 31.4182C201.904 39.4691 201.708 47.7164 201.511 55.9636Z" fill="#F0DED4"/>
<path d="M36.72 140.4C19.8327 140.4 8.24727 135.098 0 124.102V89.5418C4.32 93.4691 9.81818 95.4327 15.7091 95.4327C26.5091 95.4327 30.6327 89.7382 32.4 77.5637C35.1491 60.2837 33.1855 33.3818 28.6691 0H82.2764C78.3491 24.9382 77.9564 56.5527 80.3127 86.7927C83.0618 120.567 67.7455 140.4 36.72 140.4Z" fill="#F0DED4"/>
</svg>
