<svg width="64" height="32" viewBox="0 0 64 32" fill="none" xmlns="http://www.w3.org/2000/svg">
<path d="M18.667 16H24V13.334H26.667V16H29.333V13.334H34.667V16H37.333V13.334H40V16H45.333V13.334H48V16H50.667V18.666H53.333L53.4014 21.334H56V24H58.667V26.666H61.333L61.4014 29.334H64V32.001H0V29.334H2.66699V26.666H5.33301V24H8V21.334H10.667V18.666H13.333V16H16V13.334H18.667V16ZM24 10.667H21.334V13.333L18.667 13.334V10.666H21.333V8H24V10.667ZM42.667 10.666H45.333V13.334L42.666 13.333V10.667H40V8H42.667V10.666ZM26.667 8.00098L24 8V5.33398H26.667V8.00098ZM40 8L37.333 8.00098V5.33398H40V8ZM34.667 2.66602H37.333V5.33398L34.666 5.33301V2.66699H29.334V5.33301L26.667 5.33398V2.66602H29.333V0H34.667V2.66602Z" fill="#D2BFB5"/>
</svg>
