<svg width="48" height="38" viewBox="0 0 48 38" fill="none" xmlns="http://www.w3.org/2000/svg">
<path opacity="0.5" d="M17.9243 0C18.0807 4.82009 19.0956 9.56936 22.1545 20.4009L22.7935 22.6498L22.8892 22.9619C23.2009 23.9744 24.1068 26.7345 25.1603 26.222C26.3644 25.6363 25.1958 21.9561 24.3633 18.8534C22.7935 13.0024 24.3634 9.1578 26.3558 6.83085C27.352 5.6675 30.3408 2.95261 35.9199 2.95261C41.4989 2.95261 44.201 5.27971 45.603 7.15429C51.0299 14.4108 45.2536 28.0172 47.2761 37.884H31.2414C34.6275 31.5449 41.5278 21.4865 39.49 14.4108C39.2331 13.5182 38.7157 12.716 37.6547 12.2172C36.8989 11.8619 35.8292 11.7986 34.9734 11.9476C33.7298 12.1641 33.0297 12.8809 32.6283 13.7458C30.8491 17.5791 31.7707 23.7241 31.2219 28.0172C30.7319 32.1951 29.9458 37.8583 22.8168 37.8833L22.8176 37.884C22.8116 37.884 22.8056 37.8833 22.7997 37.8833C22.7896 37.8833 22.7795 37.884 22.7693 37.884V37.8825C19.7893 37.8589 17.3024 35.6557 16.6758 32.8151C15.6808 28.3035 14.6129 22.6774 12.1332 15.2077H11.688C11.1875 22.5139 11.4653 31.7144 12.355 37.884H0C1.22341 28.7919 1.27875 8.7674 0.166561 0H17.9243Z" fill="#F0DED4"/>
</svg>
