<svg width="572" height="466" viewBox="0 0 572 466" fill="none" xmlns="http://www.w3.org/2000/svg">
<g clip-path="url(#clip0_490_189144)">
<path d="M213.598 0C215.461 59.2905 227.556 117.71 264.007 250.945L271.622 278.609L272.763 282.447C276.477 294.901 287.272 328.853 299.827 322.549C314.175 315.345 300.25 270.075 290.33 231.91C271.622 159.939 290.33 112.647 314.074 84.0242C325.945 69.7142 361.562 36.3192 428.045 36.3192C494.528 36.3192 526.728 64.9441 543.435 88.0028C608.106 177.263 539.272 344.632 563.373 466H372.293C412.645 388.025 494.873 264.299 470.589 177.263C467.528 166.283 461.362 156.415 448.719 150.28C439.712 145.91 426.965 145.131 416.767 146.963C401.947 149.627 393.604 158.444 388.821 169.083C367.618 216.235 378.601 291.824 372.061 344.632C366.221 396.022 356.854 465.683 271.9 465.991L271.91 466C271.838 466 271.767 465.991 271.696 465.991C271.576 465.991 271.455 466 271.335 466V465.981C235.822 465.691 206.186 438.59 198.721 403.648C186.863 348.153 174.138 278.948 144.587 187.065H139.282C133.318 276.936 136.628 390.109 147.231 466H0C14.579 354.161 15.2385 107.845 1.98485 0H213.598Z" fill="#D2BFB5"/>
</g>
<defs>
<clipPath id="clip0_490_189144">
<rect width="572" height="466" fill="white"/>
</clipPath>
</defs>
</svg>
