<svg width="311" height="116" viewBox="0 0 311 116" fill="none" xmlns="http://www.w3.org/2000/svg">
<path d="M202.881 15.6337C205.413 15.6337 207.571 16.0059 209.358 16.7503C211.182 17.4947 212.578 18.5742 213.545 19.9886C214.55 21.403 215.053 23.1151 215.053 25.1251C215.053 27.4328 214.383 29.4241 213.043 31.0991C211.703 32.774 209.972 34.2629 207.851 35.5656L213.266 40.7021C213.899 39.7344 214.457 38.655 214.941 37.4639C215.462 36.2356 215.853 34.9515 216.114 33.6115H227.168C226.573 36.3286 225.679 38.9341 224.488 41.4279C223.297 43.9217 222.013 45.9875 220.636 47.6252L229.346 56H215.555L212.875 53.2084C212.131 53.6923 211.387 54.1389 210.642 54.5484C209.935 54.9578 209.135 55.3114 208.241 55.6092C207.348 55.9069 206.306 56.1303 205.115 56.2792C203.961 56.4653 202.546 56.5583 200.872 56.5583C197.782 56.5583 195.158 56.0372 192.999 54.995C190.84 53.9528 189.203 52.557 188.086 50.8077C186.969 49.021 186.411 47.0669 186.411 44.9453C186.411 43.3448 186.69 41.8746 187.249 40.5346C187.844 39.1947 188.682 37.985 189.761 36.9056C190.878 35.7889 192.236 34.8212 193.837 34.0023C193.092 33.1462 192.441 32.2715 191.883 31.3782C191.362 30.4477 190.952 29.4799 190.654 28.475C190.394 27.4328 190.264 26.3162 190.264 25.1251C190.264 23.264 190.729 21.6263 191.659 20.2119C192.627 18.7975 194.041 17.6809 195.903 16.862C197.801 16.0431 200.127 15.6337 202.881 15.6337ZM199.643 39.8646C199.122 40.2369 198.694 40.6649 198.359 41.1488C198.024 41.5954 197.782 42.0793 197.633 42.6004C197.484 43.0843 197.41 43.6054 197.41 44.1637C197.41 45.3175 197.819 46.2667 198.638 47.0111C199.457 47.7183 200.537 48.0719 201.877 48.0719C202.919 48.0719 203.831 47.9416 204.612 47.6811C205.394 47.3833 205.989 47.0669 206.399 46.7319L199.643 39.8646ZM202.714 22.6126C201.97 22.6126 201.3 22.836 200.704 23.2826C200.146 23.7293 199.867 24.4551 199.867 25.4601C199.867 26.2789 200.109 27.042 200.592 27.7492C201.076 28.4564 201.635 29.1077 202.267 29.7033C203.31 29.1077 204.091 28.4005 204.612 27.5817C205.171 26.7628 205.45 25.9439 205.45 25.1251C205.45 24.2318 205.189 23.599 204.668 23.2268C204.147 22.8174 203.496 22.6126 202.714 22.6126Z" fill="#590931"/>
<path d="M61.4051 102.383C62.9125 92.9473 62.9125 72.7362 61.4051 63.3006H85.3569C93.5083 63.3006 98.6448 66.8739 98.6448 72.6804C98.6448 78.431 95.6857 81.4459 88.5951 82.1717V82.5626C96.4674 82.7859 100.208 85.9683 100.208 91.9423C100.208 98.3629 95.1274 102.383 87.0318 102.383H61.4051ZM75.9772 86.2475C76.033 88.7599 76.0888 91.1606 76.2005 93.4497C77.4846 93.6172 78.9362 93.7289 80.4995 93.7289C84.2402 93.7289 86.2502 92.3889 86.2502 89.8765C86.2502 87.3083 84.2961 86.0241 80.2204 86.0241C78.4896 86.0241 77.0938 86.08 75.9772 86.2475ZM75.9772 79.2127C77.2055 79.3243 78.5454 79.3802 79.8854 79.3802C83.5703 79.3802 85.5244 78.096 85.5244 75.6953C85.5244 73.2387 83.6261 72.0662 79.8295 72.0662C78.4896 72.0662 77.3171 72.122 76.2563 72.2337C76.0888 74.5228 76.033 76.8677 75.9772 79.2127ZM117.195 103.332C106.755 103.332 100.781 97.1346 100.781 87.5316C100.781 78.3194 106.755 72.122 116.414 72.122C125.123 72.122 130.483 76.3094 130.483 83.1209C130.483 84.2933 130.316 86.08 130.092 86.9733H111.612C112.226 89.2065 115.409 90.7698 120.099 90.7698C123.56 90.7698 127.133 89.8207 129.534 88.2016V97.693C127.357 101.378 122.276 103.332 117.195 103.332ZM111.556 83.5117H120.936C120.713 80.8876 118.814 79.4918 116.302 79.4918C113.734 79.4918 111.891 81.0551 111.556 83.5117ZM131.521 102.383C132.806 91.049 132.917 82.1717 131.354 73.0712H141.962C142.353 75.5278 142.52 77.8727 142.632 82.6742H143.079C143.19 75.4719 145.703 72.122 149.946 72.122C151.453 72.122 152.514 72.457 153.128 73.2387V86.8058C152.291 86.2475 151.174 85.9683 150.058 85.9683C146.484 85.9683 145.2 88.8715 145.2 92.6123C145.2 96.1297 145.535 99.4796 146.149 102.383H131.521ZM154.068 102.383C155.352 91.049 155.464 82.1717 153.9 73.0712H166.909C167.244 75.3044 167.356 77.9844 167.3 80.4968H167.691C168.64 75.0253 172.381 72.122 177.852 72.122C184.887 72.122 188.348 75.9186 187.399 84.6283C186.841 92.2214 187.176 97.1905 188.404 102.383H173.721C174.335 98.0838 174.67 94.1197 174.67 89.9882C174.67 85.5216 173.721 83.3442 171.32 83.3442C168.919 83.3442 167.635 85.2983 167.635 90.3232C167.635 94.1756 167.97 97.5813 168.752 102.383H154.068ZM197.685 103.388C192.66 103.388 188.975 99.7587 188.975 94.8455C188.975 89.709 192.772 86.1916 198.243 86.1916C201.593 86.1916 204.273 87.5316 205.669 89.9323C205.501 86.0241 202.822 83.6792 197.908 83.6792C195.061 83.6792 192.437 84.6283 190.706 86.2475V77.5377C193.218 74.1878 198.355 72.122 204.273 72.122C213.653 72.122 219.013 76.9236 219.013 85.2425C219.013 87.6432 218.622 91.7748 218.622 94.2872C218.622 97.023 219.124 100.094 219.906 102.383H206.618C206.116 101.099 205.836 99.4237 205.892 97.4696H205.501C204.552 101.322 201.872 103.388 197.685 103.388ZM198.578 94.1756C198.578 95.7388 199.918 96.688 201.705 96.688C203.715 96.688 205.278 95.1247 205.613 92.8914C204.664 91.9423 203.436 91.4398 201.872 91.4398C200.03 91.4398 198.578 92.5564 198.578 94.1756ZM221.079 102.383C222.363 91.049 222.475 82.1717 220.911 73.0712H231.519C231.91 75.5278 232.078 77.8727 232.189 82.6742H232.636C232.748 75.4719 235.26 72.122 239.503 72.122C241.011 72.122 242.072 72.457 242.686 73.2387V86.8058C241.848 86.2475 240.732 85.9683 239.615 85.9683C236.042 85.9683 234.758 88.8715 234.758 92.6123C234.758 96.1297 235.093 99.4796 235.707 102.383H221.079ZM254.184 103.388C247.038 103.388 242.683 97.3021 242.683 87.6991C242.683 78.1519 247.038 72.122 254.184 72.122C259.823 72.122 262.894 75.0811 263.899 80.4968H264.29C264.29 73.6295 264.01 67.488 263.452 61.0674H277.857C276.628 76.4769 276.182 93.8406 278.415 102.383H264.904C264.457 99.6471 264.29 97.4696 264.401 95.013H264.01C263.061 100.429 259.823 103.388 254.184 103.388ZM259.656 92.1098C262.67 92.1098 264.625 90.379 264.625 87.7549C264.625 85.075 262.67 83.4 259.656 83.4C256.641 83.4 254.687 85.075 254.687 87.7549C254.687 90.379 256.641 92.1098 259.656 92.1098ZM287.624 103.388C282.599 103.388 278.914 99.7587 278.914 94.8455C278.914 89.709 282.711 86.1916 288.183 86.1916C291.532 86.1916 294.212 87.5316 295.608 89.9323C295.441 86.0241 292.761 83.6792 287.848 83.6792C285 83.6792 282.376 84.6283 280.645 86.2475V77.5377C283.158 74.1878 288.294 72.122 294.212 72.122C303.592 72.122 308.952 76.9236 308.952 85.2425C308.952 87.6432 308.561 91.7748 308.561 94.2872C308.561 97.023 309.064 100.094 309.845 102.383H296.557C296.055 101.099 295.776 99.4237 295.831 97.4696H295.441C294.491 101.322 291.812 103.388 287.624 103.388ZM288.517 94.1756C288.517 95.7388 289.857 96.688 291.644 96.688C293.654 96.688 295.217 95.1247 295.552 92.8914C294.603 91.9423 293.375 91.4398 291.812 91.4398C289.969 91.4398 288.517 92.5564 288.517 94.1756Z" fill="#590931"/>
<path d="M10.8313 56.8375C6.02982 56.8375 2.73575 55.33 0.390822 52.2034V42.3771C1.61912 43.4937 3.18241 44.052 4.85736 44.052C7.9281 44.052 9.10057 42.4329 9.60305 38.9713C10.3847 34.0581 9.82638 26.4092 8.54225 16.9178H23.7843C22.6677 24.0084 22.556 32.9973 23.226 41.5954C24.0076 51.1985 19.6528 56.8375 10.8313 56.8375ZM35.6874 56.9491C29.3784 56.9491 25.3027 52.5384 25.9168 45.2245C26.4193 38.078 26.3076 32.2715 25.0235 26.6884H39.7631C39.0373 31.6016 38.8139 35.6214 38.8139 38.748C38.8139 43.3262 39.7072 45.727 42.1638 45.727C44.6763 45.727 45.7371 43.4937 45.7371 38.6922C45.7371 34.9515 45.4021 31.5457 44.6204 26.6884H59.1925C57.8525 39.0272 58.0759 48.2394 59.9741 56H46.5187C46.072 53.3201 45.9046 50.8077 46.072 48.6302H45.6812C44.7879 53.7109 41.9963 56.9491 35.6874 56.9491ZM69.469 57.005C64.4442 57.005 60.7593 53.3759 60.7593 48.4627C60.7593 43.3262 64.5558 39.8088 70.0273 39.8088C73.3772 39.8088 76.0572 41.1488 77.4529 43.5495C77.2855 39.6413 74.6055 37.2964 69.6923 37.2964C66.8449 37.2964 64.2208 38.2455 62.4901 39.8646V31.1549C65.0025 27.805 70.139 25.7392 76.0572 25.7392C85.4369 25.7392 90.7967 30.5407 90.7967 38.8597C90.7967 41.2604 90.4059 45.392 90.4059 47.9044C90.4059 50.6402 90.9084 53.7109 91.69 56H78.4021C77.8996 54.7159 77.6204 53.0409 77.6763 51.0868H77.2855C76.3363 54.9392 73.6564 57.005 69.469 57.005ZM70.3623 47.7927C70.3623 49.356 71.7023 50.3052 73.4889 50.3052C75.4988 50.3052 77.0621 48.7419 77.3971 46.5086C76.448 45.5595 75.2197 45.057 73.6564 45.057C71.8139 45.057 70.3623 46.1736 70.3623 47.7927ZM92.8629 56C94.1471 44.6662 94.2587 35.7889 92.6954 26.6884H105.704C106.039 28.9216 106.151 31.6016 106.095 34.114H106.486C107.435 28.6425 111.176 25.7392 116.647 25.7392C123.682 25.7392 127.144 29.5358 126.194 38.2455C125.636 45.8386 125.971 50.8077 127.199 56H112.516C113.13 51.701 113.465 47.7369 113.465 43.6054C113.465 39.1388 112.516 36.9614 110.115 36.9614C107.714 36.9614 106.43 38.9155 106.43 43.9404C106.43 47.7927 106.765 51.1985 107.547 56H92.8629ZM140.273 56.9491C134.969 56.9491 130.502 55.0509 128.157 51.366V42.4329C130.446 45.1128 135.136 47.1786 139.044 47.1786C140.719 47.1786 141.613 46.7319 141.613 45.8945C141.613 45.2245 141.166 44.8895 139.547 44.4428L135.471 43.4379C130.949 42.2096 128.213 39.9763 128.213 35.6773C128.213 29.8149 133.182 25.7392 140.999 25.7392C146.247 25.7392 150.602 27.5258 152.277 30.7641V39.753C150.155 37.6314 145.409 35.9006 141.724 35.9006C140.217 35.9006 139.491 36.3472 139.491 37.0172C139.491 37.6872 139.994 38.078 141.389 38.5247L146.247 39.6413C150.546 40.8138 152.947 42.6004 152.947 47.2344C152.947 53.0409 148.089 56.9491 140.273 56.9491ZM169.676 56.9491C159.235 56.9491 153.261 50.7518 153.261 41.1488C153.261 31.9365 159.235 25.7392 168.894 25.7392C177.604 25.7392 182.964 29.9266 182.964 36.7381C182.964 37.9105 182.796 39.6971 182.573 40.5905H164.092C164.707 42.8237 167.889 44.387 172.579 44.387C176.04 44.387 179.614 43.4379 182.014 41.8188V51.3101C179.837 54.995 174.756 56.9491 169.676 56.9491ZM164.037 37.1289H173.416C173.193 34.5048 171.295 33.109 168.782 33.109C166.214 33.109 164.372 34.6723 164.037 37.1289Z" fill="#590931"/>
</svg>
