<svg width="59" height="30" viewBox="0 0 59 30" fill="none" xmlns="http://www.w3.org/2000/svg">
<path fill-rule="evenodd" clip-rule="evenodd" d="M38.318 19.093C35.5689 15.4942 30.1207 8.36202 29.2618 7.84961C27.6008 9.69124 25.3973 12.5893 23.4404 15.1631C22.6499 16.2027 21.8996 17.1892 21.2416 18.0319L15.8661 24.9166C15.1979 25.7695 12.9046 28.3486 12.8789 29.2381L13.0149 29.4393C14.2051 29.6678 17.5117 29.5894 18.8739 29.5894L29.6055 29.5838C31.4974 29.5864 45.1945 29.8596 45.8063 29.2865C45.8687 28.5919 44.7576 27.2742 44.0295 26.411C43.8597 26.2097 43.7109 26.0331 43.6028 25.895L39.6792 20.8684C39.4167 20.5317 38.9353 19.9015 38.318 19.093ZM33.1845 21.377L33.187 21.3802C33.5607 21.8845 33.9117 22.3582 34.2157 22.7581C34.5248 23.1649 34.7856 23.4952 34.972 23.703C35.2042 23.9621 35.4581 24.4018 35.2401 24.7404C34.5056 25.0619 31.8843 25.0087 30.3503 24.9775C30.0545 24.9715 29.7992 24.9664 29.6055 24.9649C28.4538 24.9741 24.2147 25.112 23.4323 24.783L23.3861 24.5619C23.8466 23.2468 28.1562 17.9622 29.2657 16.6924C29.9685 17.0364 31.7437 19.4319 33.1845 21.377Z" fill="#183332"/>
<path fill-rule="evenodd" clip-rule="evenodd" d="M30.3502 24.9775C30.0544 24.9715 29.7991 24.9663 29.6055 24.9648C29.9047 24.9672 30.352 24.9783 30.868 24.9877C30.6854 24.9843 30.5119 24.9807 30.3502 24.9775Z" fill="#183332"/>
<path d="M23.456 0.0861737C26.7216 -0.0686385 31.9675 0.0229411 35.2805 0.0707829C35.378 1.94969 35.2407 4.06832 35.4293 5.8618C37.2711 5.94569 39.2733 5.93543 41.1292 5.9557C41.2678 7.25884 41.2036 10.3348 41.21 11.7445L46.951 11.7652C47.0742 13.6547 46.8946 15.6256 47.0767 17.5348C48.2196 17.5631 51.8199 17.3437 52.5369 17.777C53.073 18.387 52.878 22.1603 52.905 23.3965C54.6096 23.4905 56.8914 23.4365 58.6408 23.4466C58.764 25.1141 58.6896 27.8594 58.6434 29.5697C56.6425 29.5813 54.6416 29.5822 52.642 29.5724C52.4458 28.1645 52.5253 25.3633 52.5317 23.8169C50.8425 23.6558 48.5107 23.6948 46.7625 23.6835C46.6637 21.9507 46.7074 19.6917 46.6997 17.9313C44.8411 17.829 42.8826 17.9333 40.9702 17.8435C40.7804 16.4562 40.8817 13.6043 40.8958 12.1345C39.2989 12.002 36.7863 12.071 35.1009 12.053C34.9829 10.4063 35.0368 8.21721 35.0368 6.51774L34.9522 6.38768C34.2878 6.061 25.1068 6.21722 23.6908 6.26276C23.5856 8.0311 23.6907 10.1491 23.6189 12.0159C21.8143 12.156 19.8352 11.9576 17.8689 12.1324C17.7933 14.0154 17.9356 15.9229 17.7766 17.8226C16.5863 17.9647 13.3593 17.9023 12.0087 17.9145C11.9061 19.6412 11.9907 21.8697 11.9394 23.6948C10.3361 23.6962 7.70675 23.6288 6.18685 23.8193C6.15093 25.7166 6.24072 27.6702 6.09065 29.5578C4.08463 29.5815 2.07733 29.5877 0.0700277 29.5762C-0.0543864 27.7238 0.0161633 25.3302 0.0597724 23.4691C1.66946 23.3602 4.13978 23.4274 5.8136 23.4222C5.87517 21.4594 5.78666 19.5885 5.93673 17.6027C7.59772 17.4519 9.85 17.5961 11.6816 17.4979L11.7226 11.7829C13.526 11.7012 15.6179 11.7689 17.4803 11.7267C17.565 9.8151 17.4264 7.91759 17.5996 5.97288C19.2375 5.86181 21.5873 5.93517 23.3252 5.89439C23.4612 4.00983 23.2662 1.91942 23.456 0.0861737Z" fill="#183332"/>
</svg>
