<svg width="59" height="30" viewBox="0 0 59 30" fill="none" xmlns="http://www.w3.org/2000/svg">
<path fill-rule="evenodd" clip-rule="evenodd" d="M20.3903 10.558C23.1394 14.1568 28.5875 21.289 29.4464 21.8015C31.1074 19.9598 33.311 17.0617 35.2678 14.488C36.0584 13.4484 36.8087 12.4618 37.4667 11.6192L42.8421 4.7345C43.5104 3.88155 45.8037 1.30242 45.8293 0.412925L45.6934 0.211767C44.5031 -0.0167528 41.1965 0.0617004 39.8344 0.0617003L29.1027 0.0672574C27.2108 0.064692 13.5138 -0.208507 12.9019 0.36461C12.8395 1.05915 13.9507 2.37683 14.6788 3.24003C14.8485 3.4414 14.9973 3.61797 15.1055 3.75607L19.029 8.78265C19.2915 9.11934 19.7729 9.74954 20.3903 10.558ZM25.5238 8.2741L25.5212 8.27089C25.1475 7.76661 24.7965 7.29289 24.4925 6.89293C24.1834 6.48612 23.9226 6.15585 23.7362 5.94807C23.5041 5.68898 23.2501 5.24925 23.4682 4.91064C24.2027 4.58913 26.8239 4.64236 28.3579 4.67357C28.6538 4.67956 28.909 4.68469 29.1027 4.68618C30.2545 4.67699 34.4936 4.53911 35.276 4.8681L35.3221 5.08914C34.8617 6.40425 30.5521 11.6889 29.4426 12.9586C28.7397 12.6147 26.9646 10.2192 25.5238 8.2741Z" fill="#183332"/>
<path fill-rule="evenodd" clip-rule="evenodd" d="M28.358 4.67361C28.6539 4.67959 28.9091 4.68473 29.1028 4.68622C28.8035 4.68387 28.3563 4.67275 27.8403 4.66335C28.0228 4.66677 28.1964 4.6704 28.358 4.67361Z" fill="#183332"/>
<path d="M35.2522 29.5649C31.9867 29.7197 26.7408 29.6281 23.4278 29.5803C23.3303 27.7014 23.4675 25.5827 23.279 23.7893C21.4371 23.7054 19.435 23.7156 17.579 23.6954C17.4405 22.3922 17.5046 19.3162 17.4982 17.9065L11.7572 17.8859C11.6341 15.9963 11.8136 14.0254 11.6315 12.1163C10.4887 12.0879 6.88837 12.3074 6.17139 11.8741C5.63526 11.2641 5.83021 7.49075 5.80328 6.25456C4.09868 6.16055 1.8169 6.21455 0.0674081 6.20441C-0.0557232 4.53701 0.0186689 1.79169 0.0648434 0.0813146C2.06573 0.0697712 4.06662 0.0688749 6.06622 0.078623C6.26246 1.48655 6.18294 4.28779 6.17652 5.83412C7.86573 5.99521 10.1975 5.95623 11.9457 5.96752C12.0445 7.70033 12.0009 9.95941 12.0086 11.7198C13.8671 11.822 15.8257 11.7178 17.7381 11.8075C17.9279 13.1948 17.8266 16.0467 17.8124 17.5166C19.4093 17.6491 21.922 17.5801 23.6073 17.5981C23.7253 19.2448 23.6715 21.4339 23.6715 23.1333L23.7561 23.2634C24.4205 23.5901 33.6015 23.4338 35.0175 23.3883C35.1227 21.62 35.0175 19.502 35.0893 17.6351C36.894 17.4951 38.8731 17.6935 40.8393 17.5187C40.915 15.6356 40.7726 13.7281 40.9317 11.8284C42.1219 11.6863 45.349 11.7488 46.6996 11.7366C46.8022 10.0098 46.7176 7.7814 46.7689 5.95623C48.3721 5.95482 51.0015 6.02228 52.5214 5.83181C52.5573 3.93443 52.4675 1.98088 52.6176 0.0932503C54.6236 0.069522 56.6309 0.0633629 58.6382 0.0749067C58.7626 1.92727 58.6921 4.32089 58.6485 6.18197C57.0388 6.29087 54.5685 6.22365 52.8947 6.22891C52.8331 8.1917 52.9216 10.0625 52.7715 12.0484C51.1105 12.1991 48.8582 12.055 47.0267 12.1532L46.9856 17.8682C45.1823 17.9499 43.0903 17.8822 41.228 17.9244C41.1433 19.836 41.2818 21.7335 41.1087 23.6782C39.4708 23.7893 37.121 23.7159 35.383 23.7567C35.2471 25.6412 35.442 27.7316 35.2522 29.5649Z" fill="#183332"/>
</svg>
